<?xml version="1.0" encoding="utf-8"?>
<svg version="1.1" xmlns:xlink="http://www.w3.org/1999/xlink" width="60px" height="60px" xmlns="http://www.w3.org/2000/svg">
  <g transform="matrix(1 0 0 1 -1833 -200 )">
    <path d="M 60 30  C 60 13.5  46.5 0  30 0  C 13.5 0  0 13.5  0 30  C 0 46.5  13.5 60  30 60  C 46.5 60  60 46.5  60 30  Z M 49.125 17.25  C 50.625 18.375  50.625 20.25  49.125 21.75  L 26.625 44.25  C 26.25 44.625  25.125 45  24.375 45  C 23.625 45  22.875 44.625  22.125 44.25  L 8.625 30.75  C 7.5 29.625  7.5 27.375  8.625 26.25  C 9.75 25.125  12 25.125  13.125 26.25  L 24.375 37.5  L 44.625 17.25  C 45.75 16.125  48 16.125  49.125 17.25  Z " fill-rule="nonzero" fill="#70b603" stroke="none" transform="matrix(1 0 0 1 1833 200 )" />
  </g>
</svg>